<svg id="visual" viewBox="0 0 900 200" width="900" height="200" xmlns="http://www.w3.org/2000/svg" xmlns:xlink="http://www.w3.org/1999/xlink" version="1.1"><rect x="0" y="0" width="900" height="200" fill="#222222"></rect><path d="M0 158L21.5 148.5C43 139 86 120 128.8 110.7C171.7 101.3 214.3 101.7 257.2 110.7C300 119.7 343 137.3 385.8 138.7C428.7 140 471.3 125 514.2 125C557 125 600 140 642.8 142.2C685.7 144.3 728.3 133.7 771.2 128C814 122.3 857 121.7 878.5 121.3L900 121L900 0L878.5 0C857 0 814 0 771.2 0C728.3 0 685.7 0 642.8 0C600 0 557 0 514.2 0C471.3 0 428.7 0 385.8 0C343 0 300 0 257.2 0C214.3 0 171.7 0 128.8 0C86 0 43 0 21.5 0L0 0Z" fill="#222222"></path><path d="M0 96L21.5 95.8C43 95.7 86 95.3 128.8 101.8C171.7 108.3 214.3 121.7 257.2 120.3C300 119 343 103 385.8 102.7C428.7 102.3 471.3 117.7 514.2 123.3C557 129 600 125 642.8 116.8C685.7 108.7 728.3 96.3 771.2 91.8C814 87.3 857 90.7 878.5 92.3L900 94L900 0L878.5 0C857 0 814 0 771.2 0C728.3 0 685.7 0 642.8 0C600 0 557 0 514.2 0C471.3 0 428.7 0 385.8 0C343 0 300 0 257.2 0C214.3 0 171.7 0 128.8 0C86 0 43 0 21.5 0L0 0Z" fill="#1b1b1b"></path><path d="M0 71L21.5 76.7C43 82.3 86 93.7 128.8 95.7C171.7 97.7 214.3 90.3 257.2 86.3C300 82.3 343 81.7 385.8 80.7C428.7 79.7 471.3 78.3 514.2 76.8C557 75.3 600 73.7 642.8 71.3C685.7 69 728.3 66 771.2 67.8C814 69.7 857 76.3 878.5 79.7L900 83L900 0L878.5 0C857 0 814 0 771.2 0C728.3 0 685.7 0 642.8 0C600 0 557 0 514.2 0C471.3 0 428.7 0 385.8 0C343 0 300 0 257.2 0C214.3 0 171.7 0 128.8 0C86 0 43 0 21.5 0L0 0Z" fill="#151515"></path><path d="M0 68L21.5 63.5C43 59 86 50 128.8 45C171.7 40 214.3 39 257.2 44.3C300 49.7 343 61.3 385.8 66.5C428.7 71.7 471.3 70.3 514.2 65.2C557 60 600 51 642.8 46C685.7 41 728.3 40 771.2 40.7C814 41.3 857 43.7 878.5 44.8L900 46L900 0L878.5 0C857 0 814 0 771.2 0C728.3 0 685.7 0 642.8 0C600 0 557 0 514.2 0C471.3 0 428.7 0 385.8 0C343 0 300 0 257.2 0C214.3 0 171.7 0 128.8 0C86 0 43 0 21.5 0L0 0Z" fill="#0c0c0c"></path><path d="M0 18L21.5 18.7C43 19.3 86 20.7 128.8 25.8C171.7 31 214.3 40 257.2 39.3C300 38.7 343 28.3 385.8 26.7C428.7 25 471.3 32 514.2 36.2C557 40.3 600 41.7 642.8 40.7C685.7 39.7 728.3 36.3 771.2 33.2C814 30 857 27 878.5 25.5L900 24L900 0L878.5 0C857 0 814 0 771.2 0C728.3 0 685.7 0 642.8 0C600 0 557 0 514.2 0C471.3 0 428.7 0 385.8 0C343 0 300 0 257.2 0C214.3 0 171.7 0 128.8 0C86 0 43 0 21.5 0L0 0Z" fill="#000000"></path></svg>